<svg width="905" height="244" viewBox="0 0 905 244" fill="none" xmlns="http://www.w3.org/2000/svg">
<path d="M115 53C139.853 53 160 73.1472 160 98C160 122.853 139.853 143 115 143H82L84.5 182.5L48 208.5V143L77 113H115C123.284 113 130 106.284 130 98C130 89.7157 123.284 83 115 83H48L77 53H115Z" fill="#300B57"/>
<path d="M197.11 182V63H239.1C247.26 63 254.457 64.6433 260.69 67.93C266.923 71.2167 271.797 75.8067 275.31 81.7C278.823 87.48 280.58 94.2233 280.58 101.93C280.58 109.41 278.937 116.097 275.65 121.99C272.363 127.883 267.773 132.53 261.88 135.93C256.1 139.217 249.357 140.86 241.65 140.86H216.83V182H197.11ZM216.83 122.67H241.31C246.977 122.67 251.623 120.743 255.25 116.89C258.877 113.037 260.69 108.05 260.69 101.93C260.69 95.6967 258.65 90.6533 254.57 86.8C250.49 82.9467 245.22 81.02 238.76 81.02H216.83V122.67ZM336.167 182L335.317 166.02V138.31C335.317 132.53 334.694 127.713 333.447 123.86C332.314 119.893 330.387 116.89 327.667 114.85C325.061 112.697 321.547 111.62 317.127 111.62C313.047 111.62 309.477 112.47 306.417 114.17C303.357 115.87 300.751 118.533 298.597 122.16L281.937 116.04C283.751 112.3 286.131 108.843 289.077 105.67C292.137 102.383 295.934 99.7767 300.467 97.85C305.114 95.9233 310.667 94.96 317.127 94.96C325.401 94.96 332.314 96.6033 337.867 99.89C343.421 103.063 347.501 107.653 350.107 113.66C352.827 119.667 354.187 126.92 354.187 135.42L353.677 182H336.167ZM311.687 184.04C301.487 184.04 293.554 181.773 287.887 177.24C282.334 172.707 279.557 166.303 279.557 158.03C279.557 149.19 282.504 142.447 288.397 137.8C294.404 133.153 302.734 130.83 313.387 130.83H336.167V145.45H319.507C311.914 145.45 306.587 146.527 303.527 148.68C300.467 150.72 298.937 153.667 298.937 157.52C298.937 160.807 300.241 163.413 302.847 165.34C305.567 167.153 309.307 168.06 314.067 168.06C318.374 168.06 322.114 167.097 325.287 165.17C328.461 163.243 330.897 160.693 332.597 157.52C334.411 154.347 335.317 150.777 335.317 146.81H340.927C340.927 158.37 338.604 167.493 333.957 174.18C329.311 180.753 321.887 184.04 311.687 184.04ZM376.406 218.04C373.686 218.04 370.626 217.53 367.226 216.51C363.939 215.49 360.766 214.187 357.706 212.6L364.846 197.13C366.999 198.15 368.982 198.943 370.796 199.51C372.609 200.19 374.082 200.53 375.216 200.53C377.936 200.53 380.202 199.793 382.016 198.32C383.942 196.96 385.472 194.92 386.606 192.2L396.636 168.74L425.366 97H446.106L406.666 191.01C404.286 196.45 401.849 201.21 399.356 205.29C396.976 209.37 393.972 212.487 390.346 214.64C386.719 216.907 382.072 218.04 376.406 218.04ZM391.536 182L353.456 97H374.196L403.776 168.57L409.896 182H391.536ZM505.378 184.04C493.592 184.04 483.165 181.433 474.098 176.22C465.032 171.007 457.892 163.753 452.678 154.46C447.578 145.167 445.028 134.513 445.028 122.5C445.028 113.433 446.502 105.16 449.448 97.68C452.395 90.2 456.532 83.74 461.858 78.3C467.185 72.7467 473.475 68.4967 480.728 65.55C488.095 62.49 496.142 60.96 504.868 60.96C516.655 60.96 527.025 63.6233 535.978 68.95C545.045 74.1633 552.072 81.4167 557.058 90.71C562.158 99.89 564.708 110.487 564.708 122.5C564.708 134.513 562.158 145.167 557.058 154.46C552.072 163.753 545.102 171.007 536.148 176.22C527.308 181.433 517.052 184.04 505.378 184.04ZM551.618 188.97L508.268 145.11L521.018 132.87L564.028 176.56L551.618 188.97ZM505.378 166.02C513.085 166.02 519.885 164.15 525.778 160.41C531.672 156.67 536.262 151.57 539.548 145.11C542.948 138.537 544.648 131 544.648 122.5C544.648 114 542.948 106.52 539.548 100.06C536.148 93.4867 531.445 88.33 525.438 84.59C519.545 80.85 512.688 78.98 504.868 78.98C497.162 78.98 490.305 80.85 484.298 84.59C478.405 88.33 473.702 93.4867 470.188 100.06C466.788 106.52 465.088 114 465.088 122.5C465.088 131 466.788 138.537 470.188 145.11C473.702 151.57 478.462 156.67 484.468 160.41C490.588 164.15 497.558 166.02 505.378 166.02ZM630.865 182L629.845 166.36V97H648.715V182H630.865ZM572.045 140.52V97H591.085V140.52H572.045ZM591.085 140.52C591.085 147.207 591.878 152.42 593.465 156.16C595.052 159.9 597.205 162.507 599.925 163.98C602.758 165.453 605.988 166.19 609.615 166.19C616.075 166.303 621.062 164.207 624.575 159.9C628.088 155.593 629.845 149.417 629.845 141.37H636.985C636.985 150.323 635.625 158.03 632.905 164.49C630.298 170.837 626.558 175.71 621.685 179.11C616.925 182.397 611.145 184.04 604.345 184.04C597.658 184.04 591.878 182.68 587.005 179.96C582.245 177.24 578.562 172.99 575.955 167.21C573.348 161.43 572.045 154.007 572.045 144.94V140.52H591.085ZM662.562 182V97H681.432V182H662.562ZM672.082 80.85C669.022 80.85 666.359 79.7733 664.092 77.62C661.939 75.3533 660.862 72.69 660.862 69.63C660.862 66.57 661.939 63.9633 664.092 61.81C666.359 59.6567 669.022 58.58 672.082 58.58C675.142 58.58 677.749 59.6567 679.902 61.81C682.169 63.9633 683.302 66.57 683.302 69.63C683.302 72.69 682.169 75.3533 679.902 77.62C677.749 79.7733 675.142 80.85 672.082 80.85ZM735.152 184.04C726.425 184.04 718.719 182.17 712.032 178.43C705.345 174.577 700.075 169.307 696.222 162.62C692.482 155.933 690.612 148.227 690.612 139.5C690.612 130.773 692.482 123.067 696.222 116.38C700.075 109.693 705.289 104.48 711.862 100.74C718.549 96.8867 726.199 94.96 734.812 94.96C743.199 94.96 750.792 97 757.592 101.08C764.392 105.047 769.435 110.77 772.722 118.25L755.042 125.05C753.229 121.31 750.452 118.307 746.712 116.04C742.972 113.773 738.722 112.64 733.962 112.64C729.315 112.64 725.179 113.83 721.552 116.21C717.925 118.477 715.092 121.65 713.052 125.73C711.012 129.697 709.992 134.287 709.992 139.5C709.992 144.713 711.012 149.36 713.052 153.44C715.205 157.407 718.095 160.58 721.722 162.96C725.462 165.227 729.655 166.36 734.302 166.36C739.062 166.36 743.312 165.17 747.052 162.79C750.792 160.297 753.569 156.953 755.382 152.76L773.062 159.56C769.775 167.267 764.732 173.273 757.932 177.58C751.245 181.887 743.652 184.04 735.152 184.04ZM797.533 158.2L785.973 145.11L830.173 97H853.123L797.533 158.2ZM779.343 182V63H798.383V182H779.343ZM833.403 182L803.483 137.97L815.893 124.71L856.013 182H833.403Z" fill="#300B57"/>
</svg>
